<svg viewBox="0 0 353 373" fill="none" xmlns="http://www.w3.org/2000/svg">
<path d="M74.0206 79.8793C81.9975 66.711 101.238 67.1161 108.654 80.6086L147.844 151.914C155.26 165.406 145.289 181.866 129.896 181.542L48.5488 179.83C33.1562 179.506 23.8867 162.64 31.8637 149.472L74.0206 79.8793Z" fill="#FCEFB4"/>
<path d="M247.682 83.5358C255.659 70.3674 274.899 70.7726 282.315 84.265L321.505 155.57C328.921 169.063 318.95 185.523 303.557 185.199L222.21 183.486C206.817 183.162 197.548 166.296 205.525 153.128L247.682 83.5358Z" fill="#FCEFB4"/>
<path d="M105.073 291.53C97.0955 304.699 77.8548 304.294 70.4392 290.801L31.2489 219.496C23.8333 206.004 33.8045 189.543 49.1971 189.867L130.544 191.58C145.937 191.904 155.206 208.77 147.229 221.938L105.073 291.53Z" fill="#FAE588"/>
<path d="M278.986 295.192C271.009 308.36 251.769 307.955 244.353 294.463L205.163 223.158C197.747 209.665 207.718 193.205 223.111 193.529L304.458 195.242C319.851 195.566 329.12 212.431 321.143 225.6L278.986 295.192Z" fill="#FAE588"/>
<path d="M156.434 228.702C164.132 215.369 183.377 215.369 191.075 228.702L231.758 299.167C239.456 312.5 229.833 329.167 214.437 329.167H133.072C117.676 329.167 108.053 312.5 115.751 299.167L156.434 228.702Z" fill="#FCEFB4"/>
<path d="M194.852 146.569C186.875 159.737 167.635 159.332 160.219 145.839L121.029 74.5344C113.613 61.0419 123.584 44.5816 138.977 44.9056L220.324 46.6184C235.717 46.9425 244.986 63.808 237.009 76.9764L194.852 146.569Z" fill="#FAE588"/>
</svg>
