<svg width="409" height="477" viewBox="0 0 409 477" fill="none" xmlns="http://www.w3.org/2000/svg">
<path d="M86.2153 89.0221C93.9134 75.6888 113.158 75.6888 120.856 89.0222L175.416 183.522C183.114 196.856 173.491 213.522 158.095 213.522L48.9762 213.522C33.5802 213.522 23.9577 196.855 31.6557 183.522L86.2153 89.0221Z" fill="#FCEFB4"/>
<path d="M291.916 89.0221C299.614 75.6888 318.859 75.6888 326.557 89.0222L381.117 183.522C388.815 196.856 379.192 213.522 363.796 213.522L254.677 213.522C239.281 213.522 229.658 196.855 237.356 183.522L291.916 89.0221Z" fill="#FCEFB4"/>
<path d="M121.874 349.89C114.176 363.224 94.9311 363.224 87.2331 349.89L32.6735 255.39C24.9755 242.057 34.5981 225.39 49.9941 225.39L159.113 225.39C174.509 225.39 184.132 242.057 176.434 255.39L121.874 349.89Z" fill="#FAE588"/>
<path d="M327.874 349.89C320.176 363.224 300.931 363.224 293.233 349.89L238.673 255.39C230.975 242.057 240.598 225.39 255.994 225.39L365.113 225.39C380.509 225.39 390.132 242.057 382.434 255.39L327.874 349.89Z" fill="#FAE588"/>
<path d="M278.117 357.223C285.815 370.556 276.192 387.223 260.796 387.223L151.677 387.223C136.281 387.223 126.658 370.556 134.356 357.223L188.916 262.723C196.614 249.389 215.859 249.389 223.557 262.723L278.117 357.223Z" fill="#FCEFB4"/>
<path d="M224.557 176.022C216.859 189.355 197.614 189.355 189.916 176.022L135.356 81.5221C127.658 68.1888 137.281 51.5221 152.677 51.5221L261.796 51.5221C277.192 51.5221 286.815 68.1888 279.117 81.5221L224.557 176.022Z" fill="#FAE588"/>
</svg>
